Coordinates
version=1
nRows=13
nColumns=22
inDegrees=yes

Units are S.I. units (second, meters, Newtons, ...)
If the header above contains a line with 'inDegrees', this indicates whether rotational values are in degrees (yes) or radians (no).

endheader
time	pelvis_tilt	pelvis_list	pelvis_rotation	pelvis_tx	pelvis_ty	pelvis_tz	hip_flexion_r	hip_adduction_r	hip_rotation_r	knee_angle_r	ankle_angle_r	subtalar_angle_r	hip_flexion_l	hip_adduction_l	hip_rotation_l	knee_angle_l	ankle_angle_l	subtalar_angle_l	lumbar_extension	lumbar_bending	lumbar_rotation
      4.16000000	     -7.68353387	      0.58688989	    -61.48324214	      0.08705916	      0.96057694	      0.86461432	     25.29070257	      2.29590181	    -21.12810741	    -23.11822668	      0.00855438	     -1.80916007	     -0.77442784	    -12.58028941	      6.07672657	    -35.45874160	      7.30809142	      8.70757182	      1.62748483	      7.42019848	    -13.51242363
      4.17000000	     -7.79753144	      0.60959509	    -61.64508894	      0.08741988	      0.96155875	      0.87108271	     24.79125494	      2.68194856	    -21.10377110	    -22.77070826	      0.29648252	     -1.82617005	      0.21633772	    -12.67874565	      6.22127500	    -37.22552426	      6.91581741	      8.39399762	      1.67033768	      7.57660933	    -13.37439595
      4.18000000	     -7.92049486	      0.63609199	    -61.81832387	      0.08770324	      0.96241819	      0.87735180	     24.30922248	      3.07584613	    -21.06558362	    -22.41446592	      0.57481611	     -1.85016561	      1.22276610	    -12.77600704	      6.36040962	    -38.90648084	      6.69871299	      8.03420072	      1.70882254	      7.73774009	    -13.23213712
      4.19000000	     -8.03940308	      0.67664340	    -61.99547006	      0.08793358	      0.96317726	      0.88341329	     23.84732233	      3.45732195	    -21.01289323	    -22.05051520	      0.84286104	     -1.88384457	      2.23417482	    -12.84471285	      6.52618963	    -40.45846914	      6.62490855	      7.52609504	      1.74819903	      7.88502549	    -13.09251322
      4.20000000	     -8.17909121	      0.68234934	    -62.23037348	      0.08806293	      0.96389593	      0.88937491	     23.36269625	      3.89712293	    -20.91371321	    -21.66673711	      1.08515943	     -1.90979855	      3.17980378	    -12.94791810	      6.64114057	    -41.83998060	      6.71810767	      7.12416830	      1.75393378	      8.06980297	    -12.85354566
      4.21000000	     -8.31381569	      0.67784037	    -62.51765901	      0.08810799	      0.96457222	      0.89520847	     22.87827111	      4.35078211	    -20.76431173	    -21.28956580	      1.31659540	     -1.92947406	      4.06637517	    -13.04307143	      6.72308798	    -43.03221007	      6.96694716	      6.81813251	      1.73576449	      8.25298988	    -12.53511888
      4.22000000	     -8.44128253	      0.70552770	    -62.78085500	      0.08817601	      0.96519687	      0.90085024	     22.41344536	      4.77125471	    -20.61242015	    -20.88406040	      1.52574305	     -1.94946256	      4.95667401	    -13.08237074	      6.88581482	    -44.03075447	      7.29775366	      6.36543215	      1.74952161	      8.40990237	    -12.26015682
      4.23000000	     -8.54024331	      0.71786918	    -63.10912530	      0.08819536	      0.96581883	      0.90639201	     21.94244036	      5.18244133	    -20.40337480	    -20.51329147	      1.74411463	     -1.96951120	      5.75202559	    -13.09077022	      6.99992361	    -44.81544202	      7.76621045	      6.07544882	      1.72527606	      8.54855306	    -11.89210294
      4.24000000	     -8.62358627	      0.74716205	    -63.43415535	      0.08822611	      0.96642735	      0.91177896	     21.47802017	      5.56715040	    -20.17187479	    -20.12641551	      1.94164391	     -1.99335374	      6.51364256	    -13.04343321	      7.17302525	    -45.39087558	      8.30531320	      5.79609315	      1.71176550	      8.65935084	    -11.53654828
      4.25000000	     -8.68618864	      0.79154131	    -63.76244717	      0.08828618	      0.96703085	      0.91702855	     21.02010896	      5.91969212	    -19.92166168	    -19.73414174	      2.11770740	     -2.02618050	      7.23167174	    -12.93804464	      7.39017568	    -45.75817799	      8.89138216	      5.53854927	      1.70764781	      8.74176821	    -11.18014219
      4.26000000	     -8.72727367	      0.84904086	    -64.09038699	      0.08836513	      0.96762784	      0.92212660	     20.57218083	      6.23832439	    -19.65831510	    -19.34445126	      2.27854490	     -2.06990463	      7.90915074	    -12.77892032	      7.64851438	    -45.92821655	      9.51607031	      5.31965436	      1.70630119	      8.79515353	    -10.83011342
      4.27000000	     -8.75079315	      0.91804672	    -64.41074097	      0.08846708	      0.96821632	      0.92707101	     20.13564104	      6.52502669	    -19.38242546	    -18.95913049	      2.42574933	     -2.12245889	      8.55304158	    -12.57321976	      7.95204361	    -45.91483420	     10.17275019	      5.13346917	      1.70950344	      8.82350560	    -10.49888910
      4.28000000	     -8.74513359	      0.99526019	    -64.70503835	      0.08862963	      0.96880534	      0.93182546	     19.70437980	      6.75960193	    -19.11970252	    -18.58129628	      2.56803892	     -2.16912359	      9.16823523	    -12.30802087	      8.31779462	    -45.73743211	     10.84070681	      4.99337820	      1.70617526	      8.82115836	    -10.21311664
